<?xml version="1.0" encoding="iso-8859-1"?>
<!-- Generator: Adobe Illustrator 19.0.0, SVG Export Plug-In . SVG Version: 6.00 Build 0)  -->
<svg version="1.1" id="Capa_1" xmlns="http://www.w3.org/2000/svg" xmlns:xlink="http://www.w3.org/1999/xlink" x="0px" y="0px"
	 viewBox="0 0 480 480" style="enable-background:new 0 0 480 480;" xml:space="preserve">
<g>
	<path style="fill:#78B9EB;" d="M248.905,184H117.001l95,120l95.008-120H248.905z"/>
	<path style="fill:#78B9EB;" d="M364.001,56c-30.928,0-56,25.072-56,56h56l-34.72,43.84c9.829,7.928,22.092,12.223,34.72,12.16
		c30.928,0,56-25.072,56-56S394.929,56,364.001,56z"/>
</g>
<path style="fill:#1E81CE;" d="M364.001,48c-32.223,0.054-59.392,24.033-63.448,56h-20.096l25.552-88h25.992V0h-32
	c-3.558,0.001-6.687,2.351-7.68,5.768L263.801,104h-203.8c-4.418-0.001-8.001,3.58-8.002,7.998c0,1.804,0.609,3.555,1.73,4.97
	l150.272,189.816V464h-64v16h144v-16h-64V306.784l110.976-140.176c9.918,6.147,21.356,9.4,33.024,9.392c35.346,0,64-28.654,64-64
	S399.347,48,364.001,48z M347.465,120l-44.336,56h-43.576l16.264-56H347.465z M235.681,258.232L254.913,192h35.552l-78.464,99.112
	L133.537,192h104.72l-17.936,61.768L235.681,258.232z M259.153,120l-16.256,56H120.873l-44.336-56H259.153z M364.001,160
	c-8.083,0.043-16.04-1.999-23.104-5.928l29.376-37.104c2.744-3.463,2.161-8.495-1.302-11.238c-1.414-1.12-3.165-1.73-4.97-1.73
	h-47.336c4.418-26.139,29.19-43.747,55.329-39.329c26.139,4.418,43.747,29.19,39.329,55.329
	C407.419,143.092,387.421,159.996,364.001,160z"/>
<g>
</g>
<g>
</g>
<g>
</g>
<g>
</g>
<g>
</g>
<g>
</g>
<g>
</g>
<g>
</g>
<g>
</g>
<g>
</g>
<g>
</g>
<g>
</g>
<g>
</g>
<g>
</g>
<g>
</g>
</svg>
