<?xml version="1.0" encoding="iso-8859-1"?>
<!-- Generator: Adobe Illustrator 19.0.0, SVG Export Plug-In . SVG Version: 6.00 Build 0)  -->
<svg version="1.1" id="Layer_1" xmlns="http://www.w3.org/2000/svg" xmlns:xlink="http://www.w3.org/1999/xlink" x="0px" y="0px"
	 viewBox="0 0 512 512" style="enable-background:new 0 0 512 512;" xml:space="preserve">
<path style="fill:#CFDCE5;" d="M317.687,93.829H194.313C86.996,93.829,0,180.827,0,288.142l0,0
	c0,107.315,86.996,194.313,194.313,194.313h123.374C425.002,482.455,512,395.459,512,288.142l0,0
	C512,180.827,425.002,93.829,317.687,93.829z"/>
<path style="fill:#4EBFED;" d="M194.313,441.33c-84.468,0-153.186-68.72-153.186-153.186s68.72-153.186,153.186-153.186h123.374
	c84.468,0,153.186,68.72,153.186,153.186S402.155,441.33,317.687,441.33H194.313z"/>
<path style="fill:#FCD577;" d="M294.624,29.545c-9.221,0-17.902,3.595-24.455,10.13c-6.533,6.532-10.13,15.213-10.13,24.444
	c0,5.082,4.12,9.201,9.201,9.201s9.201-4.12,9.201-9.201c0-4.315,1.683-8.375,4.731-11.422c3.07-3.062,7.137-4.748,11.45-4.748
	c8.923,0,16.182,7.254,16.182,16.17v56.337h-88.199V64.119c0-19.064-15.515-34.573-34.585-34.573
	c-9.248,0-17.932,3.601-24.443,10.13c-6.532,6.532-10.13,15.213-10.13,24.444c0,5.082,4.12,9.201,9.201,9.201
	s9.201-4.12,9.201-9.201c0-4.315,1.683-8.375,4.749-11.439c3.043-3.051,7.099-4.731,11.421-4.731c8.923,0,16.182,7.254,16.182,16.17
	v166.889c0,5.082,4.12,9.201,9.201,9.201s9.201-4.12,9.201-9.201v-33.26h88.199v36.143c0,5.082,4.12,9.201,9.201,9.201
	s9.201-4.12,9.201-9.201V64.117C329.21,45.054,313.695,29.545,294.624,29.545z M222.608,179.344v-40.486h88.199v40.486H222.608z"/>
<g>
	<path style="fill:#6ED4F4;" d="M400.373,253.327c-16.65,0-25.379-4.293-33.08-8.079c-6.755-3.322-12.589-6.191-24.959-6.191
		s-18.203,2.868-24.959,6.191c-7.701,3.787-16.43,8.079-33.08,8.079c-16.647,0-25.376-4.293-33.076-8.08
		c-6.754-3.322-12.586-6.191-24.954-6.191s-18.2,2.868-24.955,6.191c-7.701,3.787-16.429,8.08-33.077,8.08
		c-16.647,0-25.375-4.293-33.075-8.08c-6.754-3.322-12.586-6.191-24.954-6.191c-5.082,0-9.201-4.12-9.201-9.201
		s4.12-9.201,9.201-9.201c16.648,0,25.376,4.293,33.076,8.08c6.754,3.322,12.586,6.191,24.953,6.191
		c12.368,0,18.2-2.868,24.955-6.191c7.701-3.787,16.429-8.08,33.077-8.08c16.647,0,25.376,4.293,33.076,8.08
		c6.754,3.322,12.586,6.191,24.954,6.191c12.37,0,18.203-2.868,24.959-6.191c7.701-3.787,16.43-8.079,33.08-8.079
		c16.65,0,25.379,4.293,33.08,8.079c6.755,3.322,12.589,6.191,24.959,6.191c5.082,0,9.201,4.12,9.201,9.201
		S405.455,253.327,400.373,253.327z"/>
	<path style="fill:#6ED4F4;" d="M400.373,304.479c-16.65,0-25.379-4.293-33.08-8.079c-6.755-3.322-12.589-6.191-24.959-6.191
		s-18.203,2.868-24.959,6.191c-7.701,3.787-16.43,8.079-33.08,8.079c-16.647,0-25.376-4.293-33.076-8.08
		c-6.754-3.322-12.586-6.191-24.954-6.191s-18.2,2.868-24.955,6.191c-7.701,3.787-16.429,8.08-33.077,8.08
		c-16.647,0-25.375-4.293-33.075-8.08c-6.754-3.322-12.586-6.191-24.954-6.191c-5.082,0-9.201-4.12-9.201-9.201
		s4.12-9.201,9.201-9.201c16.648,0,25.376,4.293,33.076,8.08c6.754,3.322,12.586,6.191,24.953,6.191
		c12.368,0,18.2-2.868,24.955-6.191c7.701-3.787,16.429-8.08,33.077-8.08c16.647,0,25.376,4.293,33.076,8.08
		c6.754,3.322,12.586,6.191,24.954,6.191c12.37,0,18.203-2.868,24.959-6.191c7.701-3.787,16.43-8.079,33.08-8.079
		c16.65,0,25.379,4.293,33.08,8.079c6.755,3.322,12.589,6.191,24.959,6.191c5.082,0,9.201,4.12,9.201,9.201
		S405.455,304.479,400.373,304.479z"/>
	<path style="fill:#6ED4F4;" d="M400.373,355.632c-16.65,0-25.379-4.293-33.08-8.079c-6.755-3.322-12.589-6.191-24.959-6.191
		s-18.203,2.868-24.959,6.191c-7.701,3.787-16.43,8.079-33.08,8.079c-16.647,0-25.376-4.293-33.076-8.08
		c-6.754-3.322-12.586-6.191-24.954-6.191s-18.2,2.868-24.955,6.191c-7.701,3.787-16.429,8.08-33.077,8.08
		c-16.647,0-25.375-4.293-33.075-8.08c-6.754-3.322-12.586-6.191-24.954-6.191c-5.082,0-9.201-4.12-9.201-9.201
		s4.12-9.201,9.201-9.201c16.648,0,25.376,4.293,33.076,8.08c6.754,3.322,12.586,6.191,24.953,6.191
		c12.368,0,18.2-2.868,24.955-6.191c7.701-3.787,16.429-8.08,33.077-8.08c16.647,0,25.376,4.293,33.076,8.08
		c6.754,3.322,12.586,6.191,24.954,6.191c12.37,0,18.203-2.868,24.959-6.191c7.701-3.787,16.43-8.079,33.08-8.079
		c16.65,0,25.379,4.293,33.08,8.079c6.755,3.322,12.589,6.191,24.959,6.191c5.082,0,9.201,4.12,9.201,9.201
		S405.455,355.632,400.373,355.632z"/>
</g>
<g>
</g>
<g>
</g>
<g>
</g>
<g>
</g>
<g>
</g>
<g>
</g>
<g>
</g>
<g>
</g>
<g>
</g>
<g>
</g>
<g>
</g>
<g>
</g>
<g>
</g>
<g>
</g>
<g>
</g>
</svg>
