<?xml version="1.0" encoding="iso-8859-1"?>
<!-- Generator: Adobe Illustrator 19.0.0, SVG Export Plug-In . SVG Version: 6.00 Build 0)  -->
<svg version="1.1" id="Capa_1" xmlns="http://www.w3.org/2000/svg" xmlns:xlink="http://www.w3.org/1999/xlink" x="0px" y="0px"
	 viewBox="0 0 512 512" style="enable-background:new 0 0 512 512;" xml:space="preserve">
<path id="SVGCleanerId_0" style="fill:#F2BB80;" d="M418.133,79.531L418.133,79.531c28.279,0,51.2,22.921,51.2,51.2v42.667
	c0,28.279-22.921,51.2-51.2,51.2l0,0c-28.279,0-51.2-22.921-51.2-51.2v-42.667C366.933,102.451,389.854,79.531,418.133,79.531z"/>
<path style="fill:#4398D1;" d="M418.133,79.531c-28.279,0-51.2,22.921-51.2,51.2v8.533h102.4v-8.533
	C469.333,102.451,446.413,79.531,418.133,79.531z"/>
<path style="fill:#3E8CC7;" d="M366.933,139.264h102.4v-8.533c-0.017-10.761-3.422-21.239-9.728-29.952
	c-28.843,15.795-60.194,26.505-92.672,31.659V139.264z"/>
<path style="fill:#F2BB80;" d="M120.661,105.131L51.2,216.064L8.533,250.197l25.6,34.133l51.2-34.133l76.8-93.867l59.733,59.733
	l-96.853,96.853c1.015,0.375,2.014,0.802,2.987,1.28c26.863,13.406,58.47,13.406,85.333,0c26.846-13.483,58.487-13.483,85.333,0
	c26.863,13.406,58.47,13.406,85.333,0c14.345-7.134,30.251-10.539,46.251-9.899L203.264,93.952
	c-9.993-9.284-23.134-14.438-36.779-14.421l0,0C147.823,79.599,130.509,89.276,120.661,105.131z"/>
<g>
	<path id="SVGCleanerId_0_1_" style="fill:#F2BB80;" d="M418.133,79.531L418.133,79.531c28.279,0,51.2,22.921,51.2,51.2v42.667
		c0,28.279-22.921,51.2-51.2,51.2l0,0c-28.279,0-51.2-22.921-51.2-51.2v-42.667C366.933,102.451,389.854,79.531,418.133,79.531z"/>
</g>
<path style="fill:#77A226;" d="M418.133,79.531c-28.279,0-51.2,22.921-51.2,51.2v8.533h102.4v-8.533
	C469.333,102.451,446.413,79.531,418.133,79.531z"/>
<path style="fill:#679522;" d="M366.933,139.264h102.4v-8.533c-0.017-10.761-3.422-21.239-9.728-29.952
	c-28.843,15.795-60.194,26.505-92.672,31.659V139.264z"/>
<path style="fill:#E8A864;" d="M145.067,292.864l-19.968,19.968c1.015,0.375,2.014,0.802,2.987,1.28
	c26.863,13.406,58.47,13.406,85.333,0c26.846-13.483,58.487-13.483,85.333,0c26.863,13.406,58.47,13.406,85.333,0
	c14.345-7.134,30.251-10.539,46.251-9.899l-49.408-45.483C303.855,279.006,224.725,290.458,145.067,292.864z"/>
<path style="fill:#4398D1;" d="M512,423.936c-14.814,0.017-29.423-3.43-42.667-10.069l0,0c-26.863-13.406-58.47-13.406-85.333,0l0,0
	c-26.863,13.406-58.47,13.406-85.333,0l0,0c-26.863-13.406-58.47-13.406-85.333,0l0,0c-26.863,13.406-58.47,13.406-85.333,0l0,0
	c-26.863-13.406-58.47-13.406-85.333,0l0,0C29.423,420.506,14.814,423.953,0,423.936v-99.669
	c14.814,0.017,29.423-3.43,42.667-10.069l0,0c26.863-13.406,58.47-13.406,85.333,0l0,0c26.863,13.406,58.47,13.406,85.333,0l0,0
	c26.863-13.406,58.47-13.406,85.333,0l0,0c26.863,13.406,58.47,13.406,85.333,0l0,0c26.863-13.406,58.47-13.406,85.333,0l0,0
	c13.244,6.639,27.853,10.086,42.667,10.069V423.936z"/>
<path style="fill:#E5E5E5;" d="M435.2,139.264h17.067c9.429,0,17.067,7.637,17.067,17.067l0,0c0,9.429-7.637,17.067-17.067,17.067
	H435.2c-9.429,0-17.067-7.637-17.067-17.067l0,0C418.133,146.901,425.771,139.264,435.2,139.264z"/>
<g>
	<path style="fill:#3D8AC4;" d="M512,332.8c-16.145,0.009-32.077-3.763-46.507-11.008c-24.465-12.117-53.188-12.117-77.653,0
		c-29.286,14.592-63.727,14.592-93.013,0c-24.465-12.117-53.188-12.117-77.653,0c-29.286,14.592-63.727,14.592-93.013,0
		c-24.465-12.117-53.188-12.117-77.653,0C32.077,329.037,16.145,332.809,0,332.8v-17.067c13.474-0.009,26.761-3.132,38.827-9.131
		c29.286-14.592,63.727-14.592,93.013,0c24.465,12.117,53.188,12.117,77.653,0c29.286-14.592,63.727-14.592,93.013,0
		c24.465,12.117,53.188,12.117,77.653,0c29.286-14.592,63.727-14.592,93.013,0c12.066,5.999,25.353,9.122,38.827,9.131V332.8
		L512,332.8z"/>
	<path style="fill:#3D8AC4;" d="M512,381.269c-16.145,0-32.068-3.772-46.507-11.008c-24.465-12.117-53.188-12.117-77.653,0
		c-29.286,14.592-63.727,14.592-93.013,0c-24.465-12.117-53.188-12.117-77.653,0c-29.286,14.592-63.727,14.592-93.013,0
		c-24.465-12.117-53.188-12.117-77.653,0C32.068,377.498,16.145,381.269,0,381.269v-17.067c13.474-0.009,26.761-3.132,38.827-9.131
		c29.286-14.592,63.727-14.592,93.013,0c24.465,12.117,53.188,12.117,77.653,0c29.286-14.592,63.727-14.592,93.013,0
		c24.465,12.117,53.188,12.117,77.653,0c29.286-14.592,63.727-14.592,93.013,0c12.066,5.999,25.353,9.122,38.827,9.131V381.269
		L512,381.269z"/>
	<path style="fill:#3D8AC4;" d="M512,432.469c-16.145,0-32.068-3.772-46.507-11.008c-24.465-12.117-53.188-12.117-77.653,0
		c-29.286,14.592-63.727,14.592-93.013,0c-24.465-12.117-53.188-12.117-77.653,0c-29.286,14.592-63.727,14.592-93.013,0
		c-24.465-12.117-53.188-12.117-77.653,0C32.068,428.698,16.145,432.469,0,432.469v-17.067c13.474-0.009,26.761-3.132,38.827-9.131
		c29.286-14.592,63.727-14.592,93.013,0c24.465,12.117,53.188,12.117,77.653,0c29.286-14.592,63.727-14.592,93.013,0
		c24.465,12.117,53.188,12.117,77.653,0c29.286-14.592,63.727-14.592,93.013,0c12.066,5.999,25.353,9.122,38.827,9.131V432.469
		L512,432.469z"/>
</g>
<g>
	<rect x="366.933" y="130.731" style="fill:#5A5B5B;" width="102.4" height="17.067"/>
	<path style="fill:#5A5B5B;" d="M452.267,181.931H435.2c-14.14,0-25.6-11.46-25.6-25.6c0-14.14,11.46-25.6,25.6-25.6h17.067
		c14.14,0,25.6,11.46,25.6,25.6C477.867,170.47,466.406,181.931,452.267,181.931L452.267,181.931z M435.2,147.797
		c-4.71,0-8.533,3.823-8.533,8.533c0,4.71,3.823,8.533,8.533,8.533h17.067c4.71,0,8.533-3.823,8.533-8.533
		c0-4.71-3.823-8.533-8.533-8.533H435.2z"/>
</g>
<g>
</g>
<g>
</g>
<g>
</g>
<g>
</g>
<g>
</g>
<g>
</g>
<g>
</g>
<g>
</g>
<g>
</g>
<g>
</g>
<g>
</g>
<g>
</g>
<g>
</g>
<g>
</g>
<g>
</g>
</svg>
